<svg width="24" height="24" viewBox="0 0 24 24" fill="none" xmlns="http://www.w3.org/2000/svg">
<g id="icons / 40x40 / instagram">
<path id="Vector" d="M21.5382 8.067C21.5264 7.26123 21.3772 6.46185 21.0914 5.70824C20.5914 4.42136 19.5732 3.40377 18.2841 2.90562C17.5389 2.62568 16.7509 2.4756 15.9534 2.45857C14.9278 2.4128 14.6026 2.40002 11.9989 2.40002C9.39529 2.40002 9.06157 2.40002 8.04335 2.45857C7.24691 2.4756 6.45899 2.62568 5.71372 2.90562C4.42469 3.40377 3.40541 4.42136 2.90644 5.70824C2.62603 6.45227 2.47463 7.23888 2.4597 8.034C2.41385 9.05903 2.39999 9.38368 2.39999 11.983C2.39999 14.5823 2.39999 14.9144 2.4597 15.932C2.47569 16.7282 2.62603 17.5137 2.90644 18.2599C3.40648 19.5457 4.42469 20.5633 5.71479 21.0614C6.45686 21.351 7.24477 21.5149 8.04442 21.5404C9.07116 21.5862 9.39635 21.6 12 21.6C14.6036 21.6 14.9374 21.6 15.9556 21.5404C16.752 21.5245 17.5399 21.3744 18.2863 21.0944C19.5753 20.5952 20.5935 19.5776 21.0936 18.2918C21.374 17.5467 21.5243 16.7612 21.5403 15.9639C21.5861 14.94 21.6 14.6153 21.6 12.0149C21.5979 9.41562 21.5979 9.08565 21.5382 8.067ZM11.9925 16.8985C9.26948 16.8985 7.06352 14.6962 7.06352 11.9777C7.06352 9.25915 9.26948 7.05686 11.9925 7.05686C14.7135 7.05686 16.9215 9.25915 16.9215 11.9777C16.9215 14.6962 14.7135 16.8985 11.9925 16.8985ZM17.1177 8.02229C16.4812 8.02229 15.9684 7.50924 15.9684 6.87485C15.9684 6.24045 16.4812 5.7274 17.1177 5.7274C17.7521 5.7274 18.266 6.24045 18.266 6.87485C18.266 7.50924 17.7521 8.02229 17.1177 8.02229Z" fill="#111111"/>
<path id="Vector_2" d="M11.9941 14.982C13.6526 14.982 14.9971 13.6375 14.9971 11.979C14.9971 10.3204 13.6526 8.97595 11.9941 8.97595C10.3355 8.97595 8.99106 10.3204 8.99106 11.979C8.99106 13.6375 10.3355 14.982 11.9941 14.982Z" fill="#111111"/>
</g>
</svg>
